<?xml version="1.0" encoding="UTF-8" standalone="no"?>
<svg
   xmlns:dc="http://purl.org/dc/elements/1.1/"
   xmlns:cc="http://creativecommons.org/ns#"
   xmlns:rdf="http://www.w3.org/1999/02/22-rdf-syntax-ns#"
   xmlns:svg="http://www.w3.org/2000/svg"
   xmlns="http://www.w3.org/2000/svg"
   xmlns:sodipodi="http://sodipodi.sourceforge.net/DTD/sodipodi-0.dtd"
   xmlns:inkscape="http://www.inkscape.org/namespaces/inkscape"
   inkscape:version="1.0 (4035a4fb49, 2020-05-01)"
   sodipodi:docname="underline.svg"
   id="svg12"
   viewBox="0 0 26.458 26.458"
   version="1.1"
   height="100"
   width="100">
  <defs
     id="defs16" />
  <sodipodi:namedview
     inkscape:current-layer="g10"
     inkscape:window-maximized="1"
     inkscape:window-y="-8"
     inkscape:window-x="1358"
     inkscape:cy="55.723759"
     inkscape:cx="34.791345"
     inkscape:zoom="3.2102648"
     showgrid="false"
     id="namedview14"
     inkscape:window-height="705"
     inkscape:window-width="1366"
     inkscape:pageshadow="2"
     inkscape:pageopacity="0"
     guidetolerance="10"
     gridtolerance="10"
     objecttolerance="10"
     borderopacity="1"
     bordercolor="#666666"
     pagecolor="#ffffff"
     inkscape:document-rotation="0" />
  <metadata
     id="metadata2">
    <rdf:RDF>
      <cc:Work
         rdf:about="">
        <dc:format>image/svg+xml</dc:format>
        <dc:type
           rdf:resource="http://purl.org/dc/dcmitype/StillImage" />
        <dc:title></dc:title>
      </cc:Work>
    </rdf:RDF>
  </metadata>
  <g
     id="g10"
     transform="translate(0 -270.54)">
    <path
       id="path4"
       style="paint-order:markers fill stroke"
       fill-opacity=".99608"
       d="m5.9297 3.1484v3.1699 90.4h0.25195 2.918 42.328 42.328 2.918 0.25195v-90.4-3.1699h-3.1699-42.328-42.328-3.1699zm3.1699 3.1699h42.328 42.328v87.23h-42.328-42.328v-87.23z"
       transform="matrix(.26458 0 0 .26458 0 270.54)" />
    <g
       style="font-size:21.1664px;line-height:1.25;font-family:Montserrat;-inkscape-font-specification:Montserrat;letter-spacing:0px;word-spacing:0px;stroke-width:0.0700026"
       id="text14-7"
       aria-label="S_"
       transform="translate(-2.442962,-1.7307359)">
      <path
         id="path18"
         style="font-style:normal;font-variant:normal;font-weight:900;font-stretch:normal;font-size:17.6387px;font-family:Montserrat;-inkscape-font-specification:'Montserrat Heavy';stroke-width:0.0700026"
         d="m 15.864482,290.20712 c 3.827598,0 5.750216,-1.90498 5.750216,-4.16274 0,-4.55078 -6.826177,-3.31607 -6.826177,-4.79772 0,-0.42333 0.388051,-0.77611 1.605122,-0.77611 1.07596,0 2.222476,0.29986 3.439546,0.91722 l 1.252348,-3.01622 c -1.287625,-0.72319 -2.998579,-1.07596 -4.656617,-1.07596 -3.827598,0 -5.750216,1.8697 -5.750216,4.16273 0,4.6037 6.826177,3.35135 6.826177,4.90356 0,0.42333 -0.423329,0.67027 -1.605122,0.67027 -1.35818,0 -2.910386,-0.44097 -4.07454,-1.12888 l -1.340541,3.03386 c 1.234709,0.75846 3.316076,1.26999 5.379804,1.26999 z" />
    </g>
    <path
       id="path20"
       style="font-style:normal;font-variant:normal;font-weight:900;font-stretch:normal;font-size:17.6387px;line-height:1.25;font-family:Montserrat;-inkscape-font-specification:'Montserrat Heavy';letter-spacing:0px;word-spacing:0px;stroke-width:0.0700026"
       d="m 7.725254,291.93788 h 11.762947 v -2.11664 H 7.725254 Z" />
  </g>
</svg>
