<?xml version="1.0" encoding="UTF-8"?>
<!-- Created with Inkscape (http://www.inkscape.org/) -->
<svg width="100" height="100" version="1.1" viewBox="0 0 26.458 26.458" xmlns="http://www.w3.org/2000/svg" xmlns:cc="http://creativecommons.org/ns#" xmlns:dc="http://purl.org/dc/elements/1.1/" xmlns:rdf="http://www.w3.org/1999/02/22-rdf-syntax-ns#">
 <metadata>
  <rdf:RDF>
   <cc:Work rdf:about="">
    <dc:format>image/svg+xml</dc:format>
    <dc:type rdf:resource="http://purl.org/dc/dcmitype/StillImage"/>
    <dc:title/>
   </cc:Work>
  </rdf:RDF>
 </metadata>
 <g transform="translate(0 -270.54)">
  <path transform="matrix(.26458 0 0 .26458 0 270.54)" d="m5.9297 3.1484v3.1699 90.4h0.25195 2.918 42.328 42.328 2.918 0.25195v-90.4-3.1699h-3.1699-42.328-42.328-3.1699zm3.1699 3.1699h42.328 42.328v87.23h-42.328-42.328v-87.23z" fill-opacity=".99608" style="paint-order:markers fill stroke"/>
  <circle cx="20.312" cy="276.02" r="2.205" style="paint-order:markers fill stroke"/>
  <path d="m9.8475 279.85c-3.8812 3.6662-3.4592 9.5049-6.2125 14.26h20.125c-1.3776-3.3829-0.93084-6.9999-4.1326-10.149-1.9119 0.35266-2.3684 2.398-3.5528 3.597-2.5902-2.6161-1.9619-5.5804-6.2275-7.7082z" stroke="#000" stroke-width=".33461px"/>
 </g>
</svg>
