<?xml version="1.0" encoding="UTF-8"?>
<!-- Created with Inkscape (http://www.inkscape.org/) -->
<svg width="100" height="100" version="1.1" viewBox="0 0 26.458 26.458" xmlns="http://www.w3.org/2000/svg" xmlns:cc="http://creativecommons.org/ns#" xmlns:dc="http://purl.org/dc/elements/1.1/" xmlns:rdf="http://www.w3.org/1999/02/22-rdf-syntax-ns#">
 <metadata>
  <rdf:RDF>
   <cc:Work rdf:about="">
    <dc:format>image/svg+xml</dc:format>
    <dc:type rdf:resource="http://purl.org/dc/dcmitype/StillImage"/>
    <dc:title/>
   </cc:Work>
  </rdf:RDF>
 </metadata>
 <g transform="translate(0 -270.54)" fill-opacity=".99608">
  <path transform="matrix(.26458 0 0 .26458 0 270.54)" d="m35.465 2.709v16.344 3.168h3.1699 29.484v-3.168-16.344h-3.1699v16.344h-26.314v-16.344h-3.1699z" style="paint-order:markers fill stroke"/>
  <path transform="matrix(.26458 0 0 .26458 0 270.54)" d="m23.801 54.73v3.1699 37.873h3.1699v-37.873h49.098v37.873h3.1699v-41.043h-52.268-3.1699zm10.9 7.6719v3.1699h33.65v-3.1699h-33.65zm0 9.1699v3.168h33.65v-3.168h-33.65zm0 9.1699v3.168h33.65v-3.168h-33.65z" style="paint-order:markers fill stroke"/>
  <path transform="matrix(.26458 0 0 .26458 0 270.54)" d="m3.9102 2.6426v3.1699 90.4h0.25195 2.918 90.459 0.19336v-74.617l-3.1699-3.1934-12.496-12.59h0.011719l-3.1465-3.1699h-71.852-3.1699zm3.1699 3.1699h70.521l16.961 17.088v70.143h-87.482v-87.23z" style="paint-order:markers fill stroke"/>
  <rect x="14.439" y="272.52" width="1.8833" height="2.3801" style="paint-order:markers fill stroke"/>
 </g>
</svg>
