<?xml version="1.0" encoding="UTF-8"?>
<!-- Created with Inkscape (http://www.inkscape.org/) -->
<svg width="100" height="100" version="1.1" viewBox="0 0 26.458 26.458" xmlns="http://www.w3.org/2000/svg" xmlns:cc="http://creativecommons.org/ns#" xmlns:dc="http://purl.org/dc/elements/1.1/" xmlns:rdf="http://www.w3.org/1999/02/22-rdf-syntax-ns#">
 <metadata>
  <rdf:RDF>
   <cc:Work rdf:about="">
    <dc:format>image/svg+xml</dc:format>
    <dc:type rdf:resource="http://purl.org/dc/dcmitype/StillImage"/>
    <dc:title/>
   </cc:Work>
  </rdf:RDF>
 </metadata>
 <g fill-opacity=".99608">
  <path transform="scale(.26458)" d="m22.902 48.473v3.1699 35.143h3.1699v-35.143h49.1v35.143h3.1699v-38.312h-52.27-3.1699z" style="paint-order:markers fill stroke"/>
  <path transform="scale(.26458)" d="m5.9102 10.643v3.1699 28.086 48.057h0.25195 2.918 3.5 0.56641 1.752 0.26172 80.379 0.19336v-48.057-12.303l-3.1699-3.1934-12.496-12.59h0.011719l-3.1465-3.1699h-61.307-0.26172-0.20312-2.1152-3.9648-3.1699zm3.1699 3.1699h20.219 3.1699 33.65 3.1699 3.3691 2.9434l16.961 17.088v10.998 44.887h-7.0215-8.3008-3.1699-49.1-3.1699-12.721v-44.611-0.27539-2.2715-4.5762-21.236-0.001953z" style="paint-order:markers fill stroke"/>
  <g stroke-width=".26458">
   <path d="m8.1621 3.6545v5.18h10.581v-5.18h-0.8387v4.3413h-8.9032v-4.3413zm5.7815 0.9715v2.715h2.5254v-2.715z" style="paint-order:markers fill stroke"/>
   <path d="m9.4813 15.787v0.8387h7.8728v-0.8387z" style="paint-order:markers fill stroke"/>
   <path d="m9.4813 19.272v0.8387h7.8728v-0.8387z" style="paint-order:markers fill stroke"/>
  </g>
 </g>
</svg>
